<?xml version="1.0" encoding="utf-8"?>
<!-- Generator: Adobe Illustrator 23.0.3, SVG Export Plug-In . SVG Version: 6.00 Build 0)  -->
<svg version="1.1" id="Warstwa_1" xmlns="http://www.w3.org/2000/svg" xmlns:xlink="http://www.w3.org/1999/xlink" x="0px" y="0px"
	 viewBox="0 0 144 60" style="enable-background:new 0 0 144 60;" xml:space="preserve">
<style type="text/css">
	.st0{fill-rule:evenodd;clip-rule:evenodd;}
</style>
<path class="st0" d="M126.07,27.6c-0.54-1.24-1.28-2.31-2.21-3.2c-0.93-0.89-2.02-1.59-3.25-2.09c-1.19-0.48-2.45-0.73-3.79-0.75
	v-1.4c2.26,0.02,4.23,0.4,5.91,1.13c1.73,0.75,3.17,1.7,4.3,2.85c1.13,1.15,1.97,2.4,2.51,3.74c0.54,1.35,0.81,2.62,0.81,3.81
	c0,0.79-0.12,1.62-0.37,2.48c-0.25,0.87-0.61,1.74-1.1,2.6c-0.48,0.86-1.1,1.68-1.86,2.46c-0.75,0.78-1.64,1.46-2.67,2.05
	c-1.03,0.6-2.18,1.07-3.47,1.42c-1.22,0.33-2.58,0.51-4.07,0.52v-1.4c1.33-0.02,2.59-0.27,3.79-0.75c1.24-0.5,2.32-1.19,3.25-2.09
	c0.93-0.89,1.67-1.96,2.21-3.2c0.54-1.24,0.81-2.61,0.81-4.1C126.88,30.2,126.61,28.84,126.07,27.6 M116.82,21.56l-0.16,0
	c-1.41,0-2.72,0.25-3.93,0.75c-1.2,0.5-2.25,1.19-3.13,2.09c-0.88,0.89-1.58,1.96-2.09,3.2c-0.51,1.24-0.76,2.61-0.76,4.09
	c0,1.49,0.25,2.85,0.76,4.1c0.51,1.24,1.2,2.31,2.09,3.2c0.89,0.89,1.93,1.59,3.13,2.09c1.2,0.5,2.51,0.75,3.93,0.75l0.16,0v1.4
	l-0.23,0c-2.33,0-4.34-0.38-6.01-1.13c-1.67-0.75-3.05-1.71-4.14-2.85c-1.09-1.15-1.88-2.39-2.39-3.74
	c-0.51-1.35-0.76-2.62-0.76-3.81c0-1.21,0.25-2.5,0.76-3.86c0.51-1.36,1.3-2.61,2.39-3.74c1.08-1.14,2.46-2.08,4.14-2.82
	c1.67-0.74,3.68-1.12,6.01-1.12l0.23,0V21.56z M47.51,42.72v-1.66c0.53-0.13,1.02-0.3,1.48-0.5c1.35-0.59,2.46-1.34,3.34-2.28
	c0.87-0.94,1.5-1.98,1.9-3.14c0.4-1.16,0.6-2.31,0.6-3.46c0-1.27-0.24-2.5-0.71-3.68c-0.47-1.18-1.16-2.22-2.06-3.12
	c-0.91-0.9-2.03-1.62-3.37-2.15c-0.38-0.15-0.77-0.28-1.18-0.39v-1.66c1.04,0.14,2.04,0.37,2.97,0.69c1.63,0.56,3.02,1.34,4.19,2.33
	c1.17,0.99,2.07,2.16,2.72,3.52c0.65,1.36,0.97,2.82,0.97,4.4c0,1.63-0.34,3.14-1.01,4.51c-0.67,1.37-1.59,2.56-2.76,3.56
	c-1.17,1-2.53,1.77-4.09,2.33C49.55,42.36,48.55,42.59,47.51,42.72 M96.04,25.19c-0.14-0.45-0.46-0.89-0.94-1.32
	c-0.49-0.44-1.1-0.82-1.86-1.16c-0.75-0.34-1.62-0.62-2.58-0.83c-0.97-0.21-2-0.32-3.11-0.32c-1.68,0-3.14,0.24-4.41,0.73
	c-1.26,0.49-2.33,1.18-3.2,2.07c-0.87,0.89-1.53,1.96-1.96,3.19c-0.44,1.23-0.65,2.58-0.65,4.05c0,1.49,0.23,2.85,0.69,4.1
	c0.46,1.24,1.15,2.32,2.07,3.22c0.92,0.9,2.08,1.61,3.48,2.12c1.39,0.51,3.02,0.76,4.89,0.76c1.42,0,2.68-0.15,3.79-0.44
	c1.11-0.3,2.2-0.75,3.26-1.37v-2.7c0-2.7,0.04-4.37,0.04-4.37h2.97v9.94h-3.01v-1.31c-0.9,0.42-2.03,0.81-3.4,1.16
	c-1.37,0.35-2.94,0.52-4.71,0.52c-2.36,0-4.39-0.33-6.09-1c-1.7-0.67-3.1-1.56-4.2-2.68c-1.1-1.12-1.91-2.38-2.45-3.79
	c-0.53-1.41-0.8-2.87-0.8-4.38c0-1.76,0.34-3.34,1.03-4.73c0.68-1.39,1.64-2.56,2.87-3.52c1.23-0.96,2.68-1.69,4.37-2.2
	c1.68-0.51,3.53-0.76,5.53-0.76c1.75,0,3.26,0.18,4.55,0.53c1.28,0.35,2.36,0.78,3.24,1.29c0.87,0.51,1.56,1.06,2.07,1.64
	c0.51,0.58,0.87,1.11,1.08,1.58H96.04z M65.96,59.54c0,0-1.75-41.21-1.75-42.07c0.92-1.66,3.75-1.01,3.75,0
	C68.25,17.64,65.96,59.54,65.96,59.54 M47.51,20.69v1.66c-1.04-0.27-2.19-0.41-3.44-0.41h-3.88v19.5h3.88
	c1.27,0,2.42-0.13,3.44-0.38v1.66c-0.64,0.08-1.31,0.12-1.98,0.12h-8.56v-22.3h8.14C45.94,20.54,46.74,20.59,47.51,20.69
	 M30.73,43.22L11.1,25.8h-0.14v17.05H9.33V20.15h0.18l19.63,17.43h0.14V20.54h1.63v22.69H30.73z M0.02,20.54h3.22v22.31H0.02V20.54z
	 M88.99,8.3c6.35,2.07,12.53,4.55,19.04,6.15c10.93,2.43,24.74-0.86,35.82-2.68c0,0-3.11,0.27-7.73,0.73
	c-27.34,2.7-30.8-0.03-46.44-8.49C76.25-3.53,61.26,3.35,61.26,3.35s5.17,3.92,4.93,9.85c0,1.71,0.28,0.12,0.28-5.82
	c0.45-3.49,4.89-3.76,12.41-1.99C81.8,6.08,85.19,7.07,88.99,8.3 M57.63,49c-0.24-0.14-0.53-0.21-0.87-0.21
	c-0.21,0-0.39,0.02-0.55,0.07c-0.16,0.05-0.29,0.12-0.4,0.2c-0.11,0.08-0.19,0.18-0.24,0.29c-0.06,0.11-0.08,0.23-0.08,0.35
	c0,0.23,0.08,0.41,0.24,0.54c0.16,0.14,0.37,0.26,0.61,0.36c0.24,0.11,0.51,0.2,0.8,0.3c0.29,0.09,0.55,0.21,0.8,0.35
	c0.24,0.14,0.45,0.31,0.61,0.52c0.16,0.21,0.24,0.48,0.24,0.8c0,0.24-0.05,0.45-0.14,0.64c-0.1,0.19-0.23,0.36-0.4,0.5
	c-0.17,0.14-0.38,0.24-0.63,0.32c-0.24,0.07-0.52,0.11-0.82,0.11c-0.3,0-0.58-0.03-0.83-0.11c-0.25-0.07-0.47-0.17-0.66-0.3
	c-0.19-0.13-0.33-0.29-0.44-0.47c-0.11-0.18-0.17-0.39-0.18-0.61h0.54c0,0.09,0.03,0.2,0.06,0.33c0.04,0.13,0.11,0.25,0.21,0.37
	c0.11,0.12,0.26,0.22,0.46,0.31c0.2,0.09,0.46,0.13,0.79,0.13c0.41,0,0.75-0.08,1-0.24c0.25-0.16,0.37-0.41,0.37-0.75
	c0-0.27-0.08-0.49-0.24-0.65c-0.16-0.17-0.36-0.3-0.59-0.41c-0.24-0.11-0.5-0.21-0.78-0.3c-0.28-0.09-0.54-0.2-0.78-0.32
	c-0.24-0.13-0.44-0.28-0.59-0.47c-0.16-0.19-0.24-0.44-0.24-0.75c0-0.23,0.05-0.44,0.15-0.63c0.1-0.18,0.23-0.34,0.4-0.46
	c0.17-0.12,0.36-0.21,0.58-0.28c0.22-0.06,0.45-0.09,0.69-0.09c0.23,0,0.45,0.03,0.67,0.08c0.21,0.05,0.4,0.14,0.57,0.24
	c0.17,0.1,0.31,0.24,0.42,0.39c0.11,0.15,0.18,0.33,0.21,0.52h-0.54C58.01,49.38,57.87,49.15,57.63,49 M26.77,52.42v-0.35h1.2
	l-1.2-2.57v-0.96h0.32l2.57,5.51h-0.76l-0.76-1.62H26.77z M45.09,54.04v-5.51h0.72v5.08h2.84v0.43H45.09z M36.66,48.53h0.72v5.51
	h-0.72V48.53z M26.77,48.53v0.96l-0.04-0.08H26.7l-1.13,2.65h1.2v0.35h-1.35l-0.69,1.62h-0.36l2.33-5.51H26.77z M17.63,54.13
	l-4.37-4.3h-0.03v4.21h-0.36v-5.6h0.04l4.37,4.3h0.03v-4.21h0.36v5.6H17.63z M104.63,53.7c0.15,0,0.3-0.03,0.43-0.08
	c0.15-0.05,0.28-0.12,0.39-0.22c0.11-0.1,0.2-0.22,0.26-0.36c0.07-0.14,0.1-0.31,0.1-0.49c0-0.17-0.03-0.33-0.09-0.48
	c-0.06-0.15-0.15-0.29-0.28-0.4c-0.12-0.11-0.28-0.21-0.47-0.28c-0.11-0.04-0.22-0.07-0.35-0.08v-0.39c0.07-0.01,0.14-0.03,0.2-0.06
	c0.14-0.05,0.26-0.13,0.37-0.22c0.11-0.09,0.19-0.21,0.25-0.34c0.06-0.13,0.09-0.27,0.09-0.43c0-0.12-0.02-0.24-0.06-0.36
	c-0.04-0.12-0.11-0.23-0.2-0.32c-0.09-0.09-0.21-0.17-0.35-0.23c-0.09-0.04-0.19-0.06-0.3-0.07v-0.36h0.07
	c0.27,0,0.51,0.04,0.71,0.12c0.2,0.08,0.37,0.18,0.5,0.31c0.13,0.13,0.22,0.27,0.29,0.42c0.06,0.15,0.09,0.3,0.09,0.45
	c0,0.17-0.04,0.33-0.11,0.48c-0.07,0.15-0.17,0.28-0.3,0.39c-0.12,0.11-0.27,0.2-0.43,0.28c-0.16,0.07-0.34,0.11-0.52,0.11v0.03
	c0.12,0.01,0.27,0.02,0.46,0.06c0.19,0.03,0.37,0.09,0.55,0.19c0.18,0.1,0.33,0.23,0.47,0.41c0.13,0.18,0.2,0.41,0.2,0.71
	c0,0.19-0.03,0.38-0.1,0.56c-0.07,0.19-0.17,0.35-0.32,0.5c-0.15,0.15-0.34,0.27-0.59,0.36c-0.24,0.09-0.54,0.14-0.89,0.14h-0.08
	V53.7z M104.31,51.29h-0.87v2.41h1.15h0.04v0.35h-1.91v-5.51h1.91v0.36c-0.07-0.01-0.15-0.01-0.23-0.01h-0.96v2.06h0.95
	c0.08,0,0.16-0.01,0.24-0.02v0.39C104.53,51.3,104.42,51.29,104.31,51.29 M89.59,52.42v-0.35h1.2l-1.2-2.57v-0.96h0.32l2.57,5.51
	h-0.76l-0.76-1.62H89.59z M89.59,48.54v0.96l-0.04-0.08h-0.03l-1.13,2.65h1.2v0.35h-1.35l-0.69,1.62h-0.36l2.33-5.51H89.59z
	 M74.09,54.04v-5.51h0.72v5.07h2.84v0.43H74.09z"/>
<g>
</g>
<g>
</g>
<g>
</g>
<g>
</g>
<g>
</g>
<g>
</g>
</svg>
